<svg xmlns="http://www.w3.org/2000/svg" viewBox="0 0 420 420" role="img" aria-label="Contact links QR placeholder">
  <rect width="420" height="420" fill="#f4f0e8"/>
  <g fill="#07080a">
    <rect x="34" y="34" width="104" height="104"/><rect x="58" y="58" width="56" height="56" fill="#f4f0e8"/>
    <rect x="282" y="34" width="104" height="104"/><rect x="306" y="58" width="56" height="56" fill="#f4f0e8"/>
    <rect x="34" y="282" width="104" height="104"/><rect x="58" y="306" width="56" height="56" fill="#f4f0e8"/>
    <rect x="162" y="34" width="28" height="84"/><rect x="218" y="62" width="28" height="28"/>
    <rect x="162" y="146" width="84" height="28"/><rect x="274" y="146" width="28" height="84"/>
    <rect x="330" y="162" width="56" height="28"/><rect x="162" y="218" width="28" height="84"/>
    <rect x="218" y="218" width="84" height="28"/><rect x="246" y="274" width="28" height="84"/>
    <rect x="302" y="274" width="84" height="28"/><rect x="162" y="350" width="56" height="28"/>
    <rect x="302" y="330" width="28" height="56"/><rect x="358" y="358" width="28" height="28"/>
  </g>
  <text x="210" y="214" text-anchor="middle" font-family="Arial, sans-serif" font-size="22" font-weight="700" fill="#df6f8b">CONTACT</text>
</svg>
