<svg xmlns="http://www.w3.org/2000/svg" viewBox="0 0 420 420" role="img" aria-label="Music links QR placeholder">
  <rect width="420" height="420" fill="#f4f0e8"/>
  <g fill="#07080a">
    <rect x="34" y="34" width="104" height="104"/><rect x="58" y="58" width="56" height="56" fill="#f4f0e8"/>
    <rect x="282" y="34" width="104" height="104"/><rect x="306" y="58" width="56" height="56" fill="#f4f0e8"/>
    <rect x="34" y="282" width="104" height="104"/><rect x="58" y="306" width="56" height="56" fill="#f4f0e8"/>
    <rect x="170" y="38" width="28" height="28"/><rect x="218" y="38" width="28" height="56"/>
    <rect x="170" y="98" width="74" height="28"/><rect x="154" y="154" width="28" height="74"/>
    <rect x="210" y="154" width="28" height="28"/><rect x="266" y="170" width="56" height="28"/>
    <rect x="338" y="170" width="28" height="84"/><rect x="154" y="266" width="56" height="28"/>
    <rect x="238" y="238" width="28" height="74"/><rect x="294" y="282" width="92" height="28"/>
    <rect x="170" y="338" width="92" height="28"/><rect x="294" y="338" width="28" height="48"/>
    <rect x="350" y="350" width="36" height="36"/>
  </g>
  <text x="210" y="214" text-anchor="middle" font-family="Arial, sans-serif" font-size="24" font-weight="700" fill="#49d7df">MUSIC</text>
</svg>
